<svg width="14" height="14" viewBox="0 0 14 14" fill="none" xmlns="http://www.w3.org/2000/svg">
<path d="M7 0.628349C3.15 0.628349 0 3.47952 0 6.96429C0 10.4491 3.15 13.3002 7 13.3002C8.925 13.3002 10.71 12.6191 11.97 11.4628L10.71 10.3223C9.765 11.1777 8.4525 11.7162 6.9825 11.7162C4.0775 11.7162 1.7325 9.5937 1.7325 6.96429C1.7325 4.33487 4.0775 2.21233 6.9825 2.21233C8.435 2.21233 9.695 2.78257 10.64 3.65376L8.7325 5.3803H13.9825V0.628349L11.9 2.51329C10.64 1.37282 8.9075 0.628349 6.9825 0.628349H7Z" fill="#D9D9D9"/>
</svg>
